<?xml version="1.0" encoding="utf-8"?>
<!-- Generator: Adobe Illustrator 26.0.1, SVG Export Plug-In . SVG Version: 6.00 Build 0)  -->
<svg version="1.1" id="Layer_1" xmlns="http://www.w3.org/2000/svg" xmlns:xlink="http://www.w3.org/1999/xlink" x="0px" y="0px"
	 viewBox="0 0 1366 383" style="enable-background:new 0 0 1366 383;" xml:space="preserve">
<style type="text/css">
	.st0{fill:#46B565;}
	.st1{fill:#3D7927;}
	.st2{fill:#E6E497;}
	.st3{fill:#EBBD52;}
	.st4{fill:#184B26;}
	.st5{fill:#E6E497;enable-background:new    ;}
</style>
<ellipse transform="matrix(0.2895 -0.9572 0.9572 0.2895 -59.8363 288.3156)" class="st0" cx="164.3" cy="184.5" rx="32.6" ry="32.6"/>
<path class="st1" d="M131.8,181.5c-2.7,23.6,14.1,44.9,37.7,47.6l14.6,1.7c-8.3-20.8-16.3-36.4-24.5-46.1L131.8,181.5z"/>
<path class="st2" d="M188.1,143.8c-2.4-8.9-4.8-17.2-7.1-24.8l-18.1-2.1c5.2,9.3,10.2,24.5,15.1,44.8c1.2,0.2,2.4,0.4,3.6,0.6
	L214,166l3.3-28.3C206.6,167,196.4,174.7,188.1,143.8z"/>
<path class="st3" d="M217.2,137.5l1.5-14.4l-38-4c2.4,7.6,4.9,15.8,7.4,24.7C196.8,174.7,206.9,166.9,217.2,137.5z"/>
<path class="st1" d="M207.4,148c-11.4-1.3-22.3,2.1-30.7,8.6c-4.5-17.8-9-31.3-13.8-39.7l-19-2.2c-2.4,20.5,10,39.2,28.8,45.6
	c-6.4,6.4-10.7,15-11.9,24.7l27.9,3.2c10.1-7.3,21.5-20.5,34.3-38.4L207.4,148z"/>
<ellipse transform="matrix(0.5495 -0.8355 0.8355 0.5495 -181.4263 69.3783)" class="st0" cx="-26.4" cy="202.9" rx="32.6" ry="32.6"/>
<path class="st1" d="M-29.3,235.4c23.6,2.7,44.9-14.1,47.6-37.7l1.7-14.6c-20.8,8.3-36.4,16.3-46.1,24.5L-29.3,235.4z"/>
<path class="st3" d="M-2.1,127.1l-14.4-1.7L-23,181c7.8-3.8,16.2-7.7,25.3-11.7C33.9,155.6,26.7,141.1-2.1,127.1z"/>
<ellipse transform="matrix(0.5048 -0.8633 0.8633 0.5048 -85.5262 128.5592)" class="st0" cx="69.3" cy="138.8" rx="32.6" ry="32.6"/>
<path class="st1" d="M24.6,144l-1.7,14.6c20.8-8.3,36.4-16.3,46.1-24.5l3.2-27.9C48.6,103.6,27.3,120.4,24.6,144z"/>
<g>
	<path class="st2" d="M26.2,130.3l-28.3-3.3c28.8,14,36.1,28.5,4.5,42.3c-9.1,4-17.6,7.9-25.3,11.7l-3.1,26.5
		c9.7-8.2,25.3-16.2,46.1-24.5L26.2,130.3z"/>
	<path class="st2" d="M40.5,172.4c9.1-4,17.6-7.9,25.3-11.7l3.1-26.5c-9.7,8.2-25.3,16.2-46.1,24.5l-6.1,52.8l28.3,3.3
		C16.2,200.7,9,186.2,40.5,172.4z"/>
</g>
<path class="st2" d="M110,162.6c8.9-2.4,17.2-4.8,24.8-7.1l2.1-18.1c-9.3,5.2-24.5,10.2-44.8,15.1c-0.2,1.2-0.4,2.4-0.6,3.6
	l-3.8,32.4l28.3,3.3C86.8,181.1,79.1,170.9,110,162.6z"/>
<path class="st3" d="M116,191.8l14.4,1.7l4.4-38c-7.6,2.3-15.9,4.7-24.8,7.1C79.1,170.9,86.8,181.1,116,191.8z"/>
<path class="st1" d="M139.1,118.4c-20.5-2.4-39.2,10-45.6,28.8c-6.4-6.4-15-10.7-24.7-11.9l-3.2,27.9c7.3,10.1,20.5,21.5,38.4,34.3
	l1.8-15.5c1.3-11.4-2.1-22.3-8.6-30.7c17.8-4.5,31.3-9,39.7-13.8L139.1,118.4z"/>
<path class="st2" d="M65.6,163.2l-3.1,26.5c6.5,5.5,13.7,11.2,21.5,17.1c26.9,20.6,16.7,33.1-13.9,40.2l27.8,3.2l6.1-52.8
	C86,184.7,72.9,173.3,65.6,163.2z"/>
<path class="st3" d="M84,206.8c-7.8-6-15-11.7-21.5-17.1l3.4-29c-7.8,3.8-16.2,7.7-25.3,11.7C9,186.2,16.2,200.7,45,214.7l14.4,1.7
	l-3.4,29l14.1,1.6C100.8,239.9,111,227.4,84,206.8z"/>
<circle class="st0" cx="348.6" cy="201.4" r="32.6"/>
<path class="st1" d="M343.4,156.7l-14.6-1.7c8.3,20.8,16.3,36.4,24.5,46.1l27.9,3.2C383.9,180.8,367,159.5,343.4,156.7z"/>
<path class="st2" d="M328.8,155l-52.8-6.1l-0.8,7l-52.3-6.1c-12.8,17.9-24.2,31-34.3,38.4l26.5,3.1c5.5-6.5,11.2-13.7,17.1-21.5
	c20.6-26.9,33.1-16.7,40.2,13.9l0.9-7.8c13.8-27.8,28.1-34.3,41.7-3.3c4,9.1,7.9,17.6,11.7,25.3l26.5,3.1
	C345.1,191.4,337.1,175.8,328.8,155z"/>
<path class="st2" d="M323.1,236.2c0.6,1.8,1.2,3.7,1.8,5.9c2.4,8.9,4.8,17.2,7.1,24.8L350,269c-4.8-8.5-9.3-22-13.8-39.7
	C332.3,232.3,327.8,234.7,323.1,236.2z"/>
<path class="st2" d="M296.9,236.9l-1.3,11.2c1.5-4.1,3-7.7,4.4-10.9L296.9,236.9z"/>
<path class="st3" d="M323.1,236.2c-5.5,1.8-11.5,2.4-17.6,1.7l-5.4-0.6c-1.5,3.2-2.9,6.8-4.4,10.9l-1.7,14.4l38,4.4
	c-2.3-7.6-4.7-15.9-7.1-24.8C324.3,240,323.7,238,323.1,236.2z"/>
<path class="st4" d="M336.2,229.3c1.4-1.1,2.8-2.3,4.1-3.6c-1.7-0.6-3.5-1.1-5.3-1.4C335.4,225.9,335.8,227.6,336.2,229.3z"/>
<path class="st1" d="M340.3,225.6c6.4-6.4,10.7-15,11.8-24.7l-27.9-3.2c-6.8,5-14.3,12.6-22.3,22.5c-1.2,1.5-2.4,3-3.6,4.6
	c-2.7,3.5-5.5,7.3-8.4,11.3l7,0.8l3.1,0.4l5.4,0.6c6.1,0.7,12.1,0.1,17.6-1.7c4.8-1.5,9.2-3.9,13.1-6.9c4.5,17.8,9,31.2,13.8,39.7
	l19,2.2C371.4,250.8,359,232,340.3,225.6z"/>
<path class="st2" d="M297.7,194.6c-5.5,6.5-11.2,13.7-17.1,21.5c-20.6,26.9-33.1,16.7-40.2-13.9l-0.9,7.8
	c-13.8,27.8-28.1,34.3-41.7,3.3c-4-9.1-7.9-17.6-11.7-25.3l-26.5-3.1c8.2,9.7,16.2,25.3,24.5,46.1l52.8,6.1l0.8-7l52.3,6.1
	c2.9-4,5.7-7.8,8.4-11.3c1.2-1.6,2.4-3.1,3.6-4.6c8-9.9,15.5-17.5,22.3-22.5L297.7,194.6z"/>
<path class="st3" d="M326.7,198c-3.8-7.8-7.7-16.2-11.7-25.3c-13.8-31.5-28.3-24.3-42.3,4.5l-0.6,5.2c-7.1-29.6-19.5-39.2-39.8-12.6
	c-6,7.8-11.7,15-17.1,21.5l-29-3.4c3.8,7.8,7.7,16.2,11.7,25.3c13.8,31.5,28.3,24.3,42.3-4.5l0.6-5.2c7.1,29.6,19.5,39.2,39.8,12.6
	c6-7.8,11.7-15,17.1-21.5L326.7,198z"/>
<ellipse transform="matrix(0.1156 -0.9933 0.9933 0.1156 333.9199 832.2146)" class="st0" cx="634.3" cy="228.6" rx="32.6" ry="32.6"/>
<path class="st1" d="M639.5,273.3l14.6,1.7c-8.3-20.8-16.3-36.4-24.5-46.1l-27.9-3.2C599,249.2,615.9,270.6,639.5,273.3z"/>
<path class="st2" d="M706.9,281.1l3.3-28.3c-14,28.8-28.5,36.1-42.3,4.5c-4-9.1-7.9-17.6-11.7-25.3l-26.5-3.1
	c8.2,9.7,16.2,25.3,24.5,46.1L706.9,281.1z"/>
<path class="st2" d="M658.1,187.9c-2.4-8.9-4.8-17.2-7.1-24.8l-18.1-2.1c5.2,9.3,10.2,24.5,15.1,44.8c1.2,0.2,2.4,0.4,3.6,0.6
	l32.4,3.8l3.3-28.3C676.6,211.1,666.4,218.8,658.1,187.9z"/>
<path class="st3" d="M687.3,181.9l1.7-14.4l-38-4.4c2.3,7.6,4.7,15.9,7.1,24.8C666.4,218.8,676.6,211.1,687.3,181.9z"/>
<path class="st1" d="M677.4,192.1c-11.4-1.3-22.3,2.1-30.7,8.6c-4.5-17.8-9-31.3-13.8-39.7l-19-2.2c-2.4,20.5,10,39.2,28.8,45.6
	c-6.4,6.4-10.7,15-11.9,24.7l27.9,3.2c10.1-7.3,21.5-20.5,34.3-38.4L677.4,192.1z"/>
<path class="st2" d="M658.6,232.3l26.5,3.1c5.5-6.5,11.2-13.7,17.1-21.5c20.6-26.9,33.1-16.7,40.2,13.9l3.2-27.8l-52.8-6.1
	C680.2,211.8,668.8,224.9,658.6,232.3z"/>
<g>
	<path class="st3" d="M667.8,257.4c13.8,31.5,28.3,24.3,42.3-4.5l1.7-14.4l-55.6-6.5C660,239.8,663.9,248.2,667.8,257.4z"/>
	<path class="st3" d="M702.3,213.9c-6,7.8-11.7,15-17.1,21.5l55.6,6.5l1.6-14.1C735.4,197.1,722.9,186.9,702.3,213.9z"/>
</g>
<circle class="st0" cx="443.6" cy="247.1" r="32.6"/>
<path class="st1" d="M440.7,279.6c23.6,2.7,44.9-14.1,47.6-37.7l1.7-14.6c-20.8,8.3-36.4,16.3-46.1,24.5L440.7,279.6z"/>
<path class="st2" d="M402.9,223.3c-8.9,2.4-17.2,4.8-24.8,7.1l-2.1,18.1c9.3-5.2,24.5-10.2,44.8-15.1c0.2-1.2,0.4-2.4,0.6-3.6
	l3.8-32.4l-28.3-3.3C426.1,204.7,433.8,215,402.9,223.3z"/>
<path class="st3" d="M396.9,194.1l-14.4-1.7l-4.4,38c7.6-2.3,15.9-4.7,24.8-7.1C433.8,215,426.1,204.7,396.9,194.1z"/>
<path class="st1" d="M447.3,222.7c-7.3-10.1-20.5-21.5-38.4-34.3l-1.8,15.5c-1.3,11.4,2.1,22.3,8.6,30.7c-17.8,4.5-31.3,9-39.8,13.8
	l-2.2,19c20.5,2.4,39.2-10,45.6-28.8c6.4,6.4,15,10.7,24.7,11.9L447.3,222.7z"/>
<path class="st2" d="M447.3,222.7l3.1-26.5c-6.5-5.5-13.7-11.2-21.5-17.1c-26.9-20.6-16.7-33.1,13.9-40.2l-27.8-3.2l-6.1,52.8
	C426.9,201.2,440,212.6,447.3,222.7z"/>
<path class="st3" d="M467.9,171.2l-14.4-1.7l3.4-29l-14.1-1.6c-30.7,7.1-40.9,19.6-13.9,40.2c7.8,6,15,11.7,21.5,17.1l-3.4,29
	c7.8-3.8,16.2-7.7,25.3-11.7C503.9,199.7,496.7,185.2,467.9,171.2z"/>
<circle class="st0" cx="539.3" cy="183" r="32.6"/>
<path class="st1" d="M542.2,150.4c-23.6-2.7-44.9,14.1-47.6,37.7l-1.7,14.6c20.8-8.3,36.4-16.3,46.1-24.5L542.2,150.4z"/>
<g>
	<path class="st2" d="M496.2,174.5l-28.3-3.3c28.8,14,36.1,28.5,4.5,42.3c-9.1,4-17.6,7.9-25.3,11.7l-3.1,26.5
		c9.7-8.2,25.3-16.2,46.1-24.5L496.2,174.5z"/>
	<path class="st2" d="M510.5,216.5c9.1-4,17.6-7.9,25.3-11.7l3.1-26.5c-9.7,8.2-25.3,16.2-46.1,24.5l-6.1,52.8l28.3,3.3
		C486.2,244.8,479,230.3,510.5,216.5z"/>
</g>
<path class="st2" d="M580,206.7c8.9-2.4,17.2-4.8,24.8-7.1l2.1-18.1c-9.3,5.2-24.5,10.2-44.8,15.1c-0.2,1.2-0.4,2.4-0.6,3.6
	l-3.8,32.4L586,236C556.8,225.3,549.1,215.1,580,206.7z"/>
<path class="st3" d="M586,236l14.4,1.7l4.4-38c-7.6,2.3-15.9,4.7-24.8,7.1C549.1,215.1,556.8,225.3,586,236z"/>
<path class="st1" d="M609.1,162.5c-20.5-2.4-39.2,10-45.6,28.8c-6.5-6.4-15-10.7-24.7-11.9l-3.2,27.9c7.3,10.1,20.5,21.5,38.4,34.3
	l1.8-15.5c1.3-11.4-2.1-22.3-8.6-30.7c17.8-4.5,31.3-9,39.7-13.8L609.1,162.5z"/>
<path class="st2" d="M535.6,207.3l-3.1,26.5c6.5,5.5,13.7,11.2,21.5,17.1c26.9,20.6,16.7,33.1-13.9,40.2l27.8,3.2l6.1-52.8
	C556,228.8,542.9,217.4,535.6,207.3z"/>
<path class="st3" d="M554,251c-7.8-6-15-11.7-21.5-17.1l3.4-29c-7.8,3.8-16.2,7.7-25.3,11.7c-31.5,13.8-24.3,28.3,4.5,42.3l14.4,1.7
	l-3.4,29l14.1,1.6C570.8,284,581,271.6,554,251z"/>
<ellipse transform="matrix(0.4064 -0.9137 0.9137 0.4064 433.4387 1007.0079)" class="st0" cx="991.7" cy="169.9" rx="51.6" ry="51.6"/>
<path class="st1" d="M983.5,99.2l-23.2-2.7c13.1,32.9,25.8,57.6,38.7,72.9l44.1,5.1C1047.5,137.3,1020.8,103.5,983.5,99.2z"/>
<path class="st2" d="M876.9,86.8l-5.2,44.8c22.2-45.6,45.1-57,66.9-7.1c6.3,14.4,12.4,27.8,18.5,40.1l42,4.9
	c-12.9-15.3-25.6-40-38.7-72.9L876.9,86.8z"/>
<path class="st2" d="M954.1,234.3c3.8,14.1,7.5,27.2,11.2,39.3l28.6,3.3c-8.3-14.7-16.1-38.8-23.9-70.9c-1.9-0.4-3.8-0.7-5.7-0.9
	l-51.3-6l-5.2,44.8C924.8,197.6,940.9,185.4,954.1,234.3z"/>
<path class="st3" d="M907.9,243.9l-2.6,22.7l60.1,7c-3.7-12-7.4-25.1-11.2-39.3C940.9,185.4,924.8,197.6,907.9,243.9z"/>
<path class="st1" d="M978.5,208.3c10.1-10.2,17-23.7,18.8-39.1l-44.1-5.1c-16,11.6-34.1,32.4-54.3,60.7l24.5,2.9
	c18.1,2.1,35.3-3.3,48.6-13.6c7.1,28.1,14.3,49.4,21.9,62.9l30.1,3.5C1027.8,248,1008.1,218.4,978.5,208.3z"/>
<path class="st2" d="M953.2,164.1l-42-4.9c-8.6,10.3-17.7,21.7-27.1,34c-32.6,42.6-52.3,26.5-63.5-22l-5.1,43.9l83.5,9.7
	C919.1,196.4,937.2,175.7,953.2,164.1z"/>
<g>
	<path class="st3" d="M938.6,124.4c-21.8-49.9-44.8-38.5-66.9,7.1l-2.6,22.7l88,10.2C951.1,152.2,944.9,138.8,938.6,124.4z"/>
	<path class="st3" d="M820.6,171.2c11.2,48.5,31,64.6,63.5,22c9.4-12.3,18.4-23.7,27.1-34l-88-10.2L820.6,171.2z"/>
</g>
<ellipse transform="matrix(0.9102 -0.4142 0.4142 0.9102 2.2824 494.7794)" class="st0" cx="1142" cy="242.1" rx="51.6" ry="51.6"/>
<path class="st1" d="M1137.4,293.6c37.3,4.3,71-22.4,75.3-59.6l2.7-23.2c-32.9,13.1-57.6,25.8-72.9,38.7L1137.4,293.6z"/>
<path class="st2" d="M1077.6,204.5c-14.1,3.8-27.2,7.5-39.3,11.2l-3.3,28.6c14.7-8.3,38.8-16.1,70.9-23.9c0.4-1.9,0.7-3.8,0.9-5.7
	l6-51.3l-44.8-5.2C1114.3,175.2,1126.5,191.3,1077.6,204.5z"/>
<path class="st3" d="M1068.1,158.3l-22.7-2.6l-7,60.1c12-3.7,25.1-7.4,39.3-11.2C1126.5,191.3,1114.3,175.2,1068.1,158.3z"/>
<path class="st1" d="M1147.9,203.6c-11.6-16-32.4-34.1-60.7-54.3l-2.9,24.5c-2.1,18.1,3.3,35.3,13.6,48.6
	c-28.1,7.1-49.4,14.3-62.9,21.9l-3.5,30.1c32.4,3.8,62-15.9,72.1-45.5c10.2,10.1,23.7,17,39.1,18.8L1147.9,203.6z"/>
<path class="st2" d="M1147.9,203.6l4.9-42c-10.3-8.6-21.7-17.7-34.1-27.1c-42.6-32.6-26.5-52.3,22-63.5l-43.9-5.1l-9.7,83.5
	C1115.5,169.5,1136.2,187.6,1147.9,203.6z"/>
<path class="st3" d="M1180.4,122.1l-22.7-2.6l5.3-45.9l-22.3-2.6c-48.5,11.2-64.6,31-22,63.5c12.3,9.4,23.7,18.4,34,27.1l-5.3,45.9
	c12.3-6,25.7-12.1,40.1-18.4C1237.4,167.2,1226,144.3,1180.4,122.1z"/>
<ellipse transform="matrix(0.9117 -0.4108 0.4108 0.9117 56.3431 543.6677)" class="st0" cx="1293.3" cy="140.7" rx="51.6" ry="51.6"/>
<path class="st1" d="M1297.9,89.3c-37.3-4.3-71,22.4-75.3,59.6l-2.7,23.2c32.9-13.1,57.6-25.8,72.9-38.7L1297.9,89.3z"/>
<g>
	<path class="st5" d="M1225.1,127.3l-44.8-5.2c45.6,22.2,57,45.1,7.1,66.9c-14.4,6.3-27.8,12.4-40.1,18.4l-4.9,42
		c15.3-12.9,40-25.6,72.9-38.7L1225.1,127.3z"/>
	<path class="st5" d="M1247.8,193.8c14.4-6.3,27.8-12.4,40.1-18.5l4.9-42c-15.3,12.9-40,25.6-72.9,38.7l-9.7,83.5l44.8,5.2
		C1209.4,238.6,1197.9,215.6,1247.8,193.8z"/>
</g>
<path class="st5" d="M1357.7,178.3c14.1-3.8,27.2-7.5,39.3-11.2l3.3-28.6c-14.7,8.3-38.8,16.1-70.9,23.8c-0.4,1.9-0.7,3.8-0.9,5.7
	l-6,51.3l44.8,5.2C1321,207.7,1308.8,191.5,1357.7,178.3z"/>
<path class="st3" d="M1367.3,224.6l22.7,2.6l7-60.1c-12,3.7-25.1,7.4-39.3,11.2C1308.8,191.5,1321,207.7,1367.3,224.6z"/>
<path class="st1" d="M1403.8,108.4c-32.4-3.8-62,15.9-72.1,45.5c-10.2-10.1-23.7-17-39.1-18.8l-5.1,44.1
	c11.6,16,32.4,34.1,60.7,54.3l2.9-24.5c2.1-18.1-3.3-35.3-13.6-48.6c28.1-7.1,49.4-14.3,62.9-21.9L1403.8,108.4z"/>
<path class="st5" d="M1287.5,179.3l-4.9,42c10.3,8.6,21.7,17.7,34,27.1c42.6,32.6,26.5,52.3-22,63.5l43.9,5.1l9.7-83.5
	C1319.8,213.3,1299.1,195.3,1287.5,179.3z"/>
<path class="st3" d="M1316.6,248.3c-12.3-9.4-23.7-18.4-34-27.1l5.3-45.9c-12.3,6-25.7,12.1-40.1,18.5
	c-49.9,21.8-38.5,44.8,7.1,66.9l22.7,2.6l-5.3,45.9l22.3,2.6C1343.2,300.6,1359.3,280.9,1316.6,248.3z"/>
</svg>
