<svg width="49" height="57" viewBox="0 0 49 57" fill="none" xmlns="http://www.w3.org/2000/svg">
<path d="M20.5233 2.60828L7.46801 7.52688C4.4593 8.65187 2 12.21 2 15.4019V34.8409C2 37.9281 4.04069 41.9833 6.52615 43.8409L17.7761 52.2391C21.4652 55.0123 27.5349 55.0123 31.2239 52.2391L42.4738 43.8409C44.9593 41.9833 47 37.9281 47 34.8409V15.4019C47 12.1838 44.5407 8.62571 41.532 7.50071L28.4768 2.60828C26.253 1.79724 22.6948 1.79724 20.5233 2.60828Z" stroke="#256136" stroke-width="3.92441" stroke-linecap="round" stroke-linejoin="round"/>
<g opacity="0.4">
<path d="M24.4742 29.4773C27.3642 29.4773 29.7068 27.1347 29.7068 24.2448C29.7068 21.3549 27.3642 19.0122 24.4742 19.0122C21.5843 19.0122 19.2417 21.3549 19.2417 24.2448C19.2417 27.1347 21.5843 29.4773 24.4742 29.4773Z" stroke="#256136" stroke-width="3.92441" stroke-miterlimit="10" stroke-linecap="round" stroke-linejoin="round"/>
<path d="M24.4751 29.4773V37.3261" stroke="#256136" stroke-width="3.92441" stroke-miterlimit="10" stroke-linecap="round" stroke-linejoin="round"/>
</g>
</svg>
