<svg width="68" height="68" viewBox="0 0 68 68" fill="none" xmlns="http://www.w3.org/2000/svg">
<g clip-path="url(#clip0_204_453)">
<path d="M19.125 10.625V68H28.6875V56.3125C28.6875 55.7249 29.1624 55.25 29.75 55.25H38.25C38.8376 55.25 39.3125 55.7249 39.3125 56.3125V68H48.875V21.25V4.25C48.875 1.90081 46.9742 0 44.625 0H23.375C21.0258 0 19.125 1.90081 19.125 4.25V10.625ZM36.125 9.5625C36.125 8.97494 36.5999 8.5 37.1875 8.5H41.4375C42.0251 8.5 42.5 8.97494 42.5 9.5625V13.8125C42.5 14.4001 42.0251 14.875 41.4375 14.875H37.1875C36.5999 14.875 36.125 14.4001 36.125 13.8125V9.5625ZM36.125 20.1875C36.125 19.5999 36.5999 19.125 37.1875 19.125H41.4375C42.0251 19.125 42.5 19.5999 42.5 20.1875V24.4375C42.5 25.0251 42.0251 25.5 41.4375 25.5H37.1875C36.5999 25.5 36.125 25.0251 36.125 24.4375V20.1875ZM36.125 30.8125C36.125 30.2249 36.5999 29.75 37.1875 29.75H41.4375C42.0251 29.75 42.5 30.2249 42.5 30.8125V35.0625C42.5 35.6501 42.0251 36.125 41.4375 36.125H37.1875C36.5999 36.125 36.125 35.6501 36.125 35.0625V30.8125ZM36.125 41.4375C36.125 40.8499 36.5999 40.375 37.1875 40.375H41.4375C42.0251 40.375 42.5 40.8499 42.5 41.4375V45.6875C42.5 46.2751 42.0251 46.75 41.4375 46.75H37.1875C36.5999 46.75 36.125 46.2751 36.125 45.6875V41.4375ZM25.5 9.5625C25.5 8.97494 25.9749 8.5 26.5625 8.5H30.8125C31.4001 8.5 31.875 8.97494 31.875 9.5625V13.8125C31.875 14.4001 31.4001 14.875 30.8125 14.875H26.5625C25.9749 14.875 25.5 14.4001 25.5 13.8125V9.5625ZM25.5 20.1875C25.5 19.5999 25.9749 19.125 26.5625 19.125H30.8125C31.4001 19.125 31.875 19.5999 31.875 20.1875V24.4375C31.875 25.0251 31.4001 25.5 30.8125 25.5H26.5625C25.9749 25.5 25.5 25.0251 25.5 24.4375V20.1875ZM25.5 30.8125C25.5 30.2249 25.9749 29.75 26.5625 29.75H30.8125C31.4001 29.75 31.875 30.2249 31.875 30.8125V35.0625C31.875 35.6501 31.4001 36.125 30.8125 36.125H26.5625C25.9749 36.125 25.5 35.6501 25.5 35.0625V30.8125ZM25.5 41.4375C25.5 40.8499 25.9749 40.375 26.5625 40.375H30.8125C31.4001 40.375 31.875 40.8499 31.875 41.4375V45.6875C31.875 46.2751 31.4001 46.75 30.8125 46.75H26.5625C25.9749 46.75 25.5 46.2751 25.5 45.6875V41.4375Z" fill="#256136"/>
<path d="M29.75 31.875H27.625V34H29.75V31.875Z" fill="#256136"/>
<path d="M29.75 42.5H27.625V44.625H29.75V42.5Z" fill="#256136"/>
<path d="M37.1875 57.375H30.8125V68H37.1875V57.375Z" fill="#256136"/>
<path d="M10.625 53.125H8.5V55.25H10.625V53.125Z" fill="#256136"/>
<path d="M29.75 10.625H27.625V12.75H29.75V10.625Z" fill="#256136"/>
<path d="M29.75 21.25H27.625V23.375H29.75V21.25Z" fill="#256136"/>
<path d="M40.375 21.25H38.25V23.375H40.375V21.25Z" fill="#256136"/>
<path d="M40.375 10.625H38.25V12.75H40.375V10.625Z" fill="#256136"/>
<path d="M40.375 31.875H38.25V34H40.375V31.875Z" fill="#256136"/>
<path d="M40.375 42.5H38.25V44.625H40.375V42.5Z" fill="#256136"/>
<path d="M10.625 42.5H8.5V44.625H10.625V42.5Z" fill="#256136"/>
<path d="M17 10.625H4.25C1.90081 10.625 0 12.5258 0 14.875V63.75C0 66.0992 1.90081 68 4.25 68H17V10.625ZM12.75 56.3125C12.75 56.9001 12.2751 57.375 11.6875 57.375H7.4375C6.84994 57.375 6.375 56.9001 6.375 56.3125V52.0625C6.375 51.4749 6.84994 51 7.4375 51H11.6875C12.2751 51 12.75 51.4749 12.75 52.0625V56.3125ZM12.75 45.6875C12.75 46.2751 12.2751 46.75 11.6875 46.75H7.4375C6.84994 46.75 6.375 46.2751 6.375 45.6875V41.4375C6.375 40.8499 6.84994 40.375 7.4375 40.375H11.6875C12.2751 40.375 12.75 40.8499 12.75 41.4375V45.6875ZM12.75 35.0625C12.75 35.6501 12.2751 36.125 11.6875 36.125H7.4375C6.84994 36.125 6.375 35.6501 6.375 35.0625V30.8125C6.375 30.2249 6.84994 29.75 7.4375 29.75H11.6875C12.2751 29.75 12.75 30.2249 12.75 30.8125V35.0625ZM11.6875 25.5H7.4375C6.84994 25.5 6.375 25.0251 6.375 24.4375V20.1875C6.375 19.5999 6.84994 19.125 7.4375 19.125H11.6875C12.2751 19.125 12.75 19.5999 12.75 20.1875V24.4375C12.75 25.0251 12.2751 25.5 11.6875 25.5Z" fill="#256136"/>
<path d="M59.5 53.125H57.375V55.25H59.5V53.125Z" fill="#256136"/>
<path d="M59.5 42.5H57.375V44.625H59.5V42.5Z" fill="#256136"/>
<path d="M59.5 31.875H57.375V34H59.5V31.875Z" fill="#256136"/>
<path d="M63.75 21.25H51V68H63.75C66.0992 68 68 66.0992 68 63.75V25.5C68 23.1508 66.0992 21.25 63.75 21.25ZM61.625 56.3125C61.625 56.9001 61.1501 57.375 60.5625 57.375H56.3125C55.7249 57.375 55.25 56.9001 55.25 56.3125V52.0625C55.25 51.4749 55.7249 51 56.3125 51H60.5625C61.1501 51 61.625 51.4749 61.625 52.0625V56.3125ZM61.625 45.6875C61.625 46.2751 61.1501 46.75 60.5625 46.75H56.3125C55.7249 46.75 55.25 46.2751 55.25 45.6875V41.4375C55.25 40.8499 55.7249 40.375 56.3125 40.375H60.5625C61.1501 40.375 61.625 40.8499 61.625 41.4375V45.6875ZM61.625 35.0625C61.625 35.6501 61.1501 36.125 60.5625 36.125H56.3125C55.7249 36.125 55.25 35.6501 55.25 35.0625V30.8125C55.25 30.2249 55.7249 29.75 56.3125 29.75H60.5625C61.1501 29.75 61.625 30.2249 61.625 30.8125V35.0625Z" fill="#256136"/>
<path d="M10.625 31.875H8.5V34H10.625V31.875Z" fill="#256136"/>
<path d="M10.625 21.25H8.5V23.375H10.625V21.25Z" fill="#256136"/>
</g>
<defs>
<clipPath id="clip0_204_453">
<rect width="68" height="68" fill="white"/>
</clipPath>
</defs>
</svg>
