<svg width="24" height="27" viewBox="0 0 24 27" fill="none" xmlns="http://www.w3.org/2000/svg">
<path d="M18.2255 9.86617C20.2859 11.1134 21.3159 11.7369 21.6692 12.5354C21.9777 13.2326 21.9777 14.022 21.6692 14.7193C21.3159 15.5176 20.2859 16.1412 18.2255 17.3885L8.54871 23.2464C6.26203 24.6307 5.11868 25.3229 4.17515 25.2493C3.35272 25.1852 2.59882 24.7806 2.10687 24.139C1.54248 23.4031 1.54248 22.0971 1.54248 19.4853V7.76936C1.54248 5.15754 1.54248 3.85165 2.10687 3.11562C2.59882 2.47405 3.35272 2.06934 4.17515 2.00529C5.11868 1.93183 6.26203 2.62397 8.54871 4.00823L18.2255 9.86617Z" stroke="black" stroke-width="2.77207" stroke-linejoin="round"/>
</svg>
