<svg width="65" height="52" viewBox="0 0 65 52" fill="none" xmlns="http://www.w3.org/2000/svg">
<path d="M55.25 0H9.75C7.16414 0 4.68419 1.02723 2.85571 2.85571C1.02723 4.68419 0 7.16414 0 9.75V42.25C0 44.8359 1.02723 47.3158 2.85571 49.1443C4.68419 50.9728 7.16414 52 9.75 52H55.25C57.8359 52 60.3158 50.9728 62.1443 49.1443C63.9728 47.3158 65 44.8359 65 42.25V9.75C65 7.16414 63.9728 4.68419 62.1443 2.85571C60.3158 1.02723 57.8359 0 55.25 0ZM58.5 33.475H48.75C46.7675 33.475 44.8662 32.6875 43.4644 31.2856C42.0625 29.8838 41.275 27.9825 41.275 26C41.275 24.0175 42.0625 22.1162 43.4644 20.7144C44.8662 19.3125 46.7675 18.525 48.75 18.525H58.5V33.475ZM58.5 14.5H48.75C45.3022 14.5 42.938 15.062 40.5 17.5C38.062 19.938 36.5 22.5522 36.5 26C36.5 29.4478 37.562 32.562 40 35C42.438 37.438 45.3022 37.5 48.75 37.5H58.5V42.25C58.5 43.112 58.6095 45.3905 58 46C57.3905 46.6095 56.112 47.5 55.25 47.5H9.75C8.88805 47.5 7.60949 46.6095 7 46C6.39051 45.3905 6.5 43.112 6.5 42.25V9.75C6.5 8.88805 6.39051 7.10949 7 6.5C7.60949 5.89051 8.88805 5 9.75 5H55.25C56.112 5 57.3905 5.89051 58 6.5C58.6095 7.10949 58.5 8.88805 58.5 9.75V14.5ZM45.5 26C45.5 26.6428 45.6906 27.2711 46.0477 27.8056C46.4048 28.3401 46.9124 28.7566 47.5063 29.0026C48.1001 29.2486 48.7536 29.313 49.384 29.1876C50.0145 29.0622 50.5936 28.7526 51.0481 28.2981C51.5026 27.8436 51.8122 27.2645 51.9376 26.634C52.063 26.0036 51.9986 25.3501 51.7526 24.7563C51.5066 24.1624 51.0901 23.6548 50.5556 23.2977C50.0211 22.9406 49.3928 22.75 48.75 22.75C47.888 22.75 47.0614 23.0924 46.4519 23.7019C45.8424 24.3114 45.5 25.138 45.5 26Z" fill="#256136"/>
</svg>
