<svg width="55" height="53" viewBox="0 0 55 53" fill="none" xmlns="http://www.w3.org/2000/svg">
<path d="M17.4458 0C16.8845 0.105816 16.4797 0.602691 16.4889 1.17778V10.6C16.4889 11.2487 17.018 11.7778 17.6667 11.7778H23.5556V32.9778H9.42222C9.38542 32.9778 9.34861 32.9778 9.31181 32.9778C8.96675 33.0146 8.65851 33.2032 8.46528 33.4931L0.220833 45.2708C0.0828131 45.4641 0.0046004 45.6941 0 45.9333V50.6444C0 51.2931 0.52908 51.8222 1.17778 51.8222H2.35556V53H4.71111V51.8222H49.4667V53H51.8222V51.8222H53C53.6487 51.8222 54.1778 51.2931 54.1778 50.6444V45.9333C54.1732 45.6941 54.095 45.4641 53.9569 45.2708L45.7125 33.4931C45.4963 33.1756 45.1374 32.9824 44.7556 32.9778H30.6222V11.7778H36.5111C37.1598 11.7778 37.6889 11.2487 37.6889 10.6V1.17778C37.6889 0.52908 37.1598 0 36.5111 0H17.6667C17.6299 0 17.5931 0 17.5562 0C17.5194 0 17.4826 0 17.4458 0ZM18.8444 2.35556H35.3333V9.42222H18.8444V2.35556ZM31.8 5.88889V8.24444H34.1556V5.88889H31.8ZM25.9111 11.7778H28.2667V32.9778H25.9111V11.7778ZM10.0111 35.3333H44.1667L50.7549 44.7556H3.42292L10.0111 35.3333ZM2.35556 47.1111H51.8222V49.4667H2.35556V47.1111Z" fill="#256136"/>
</svg>
